<svg width="225" height="60" viewBox="0 0 225 60" fill="none" xmlns="http://www.w3.org/2000/svg">
<rect width="225" height="60" rx="8" fill="url(#paint0_linear_2_112)"/>
<path d="M29.8438 30.9417C29.8438 31.9015 30.0226 32.7391 30.3802 33.4542C30.7566 34.1506 31.3024 34.687 32.0176 35.0634C32.7516 35.4398 33.6456 35.628 34.6995 35.628C35.7723 35.628 36.6663 35.4398 37.3815 35.0634C38.0967 34.687 38.633 34.1506 38.9906 33.4542C39.3482 32.7391 39.527 31.9015 39.527 30.9417V19.2258H45.3991V31.224C45.3991 33.1625 44.9474 34.8564 44.044 36.3056C43.1594 37.7359 41.9173 38.8558 40.3175 39.6651C38.7177 40.4555 36.8451 40.8508 34.6995 40.8508C32.5728 40.8508 30.7001 40.4555 29.0816 39.6651C27.4818 38.8558 26.2302 37.7359 25.3269 36.3056C24.4423 34.8564 24 33.1625 24 31.224V19.2258H29.8438V30.9417Z" fill="white"/>
<path d="M47.6387 33.6801H53.5954C53.6895 34.2635 53.9624 34.7717 54.4141 35.2046C54.8658 35.6374 55.4681 35.9762 56.2209 36.2209C56.9925 36.4467 57.8959 36.5597 58.9311 36.5597C60.3614 36.5597 61.4907 36.3809 62.3188 36.0233C63.1469 35.6469 63.5609 35.1011 63.5609 34.3859C63.5609 33.8401 63.3257 33.4166 62.8552 33.1155C62.3846 32.8144 61.4813 32.5979 60.145 32.4662L56.1927 32.0992C53.2755 31.8357 51.1581 31.177 49.8407 30.123C48.5232 29.0502 47.8645 27.6104 47.8645 25.8037C47.8645 24.3357 48.288 23.0935 49.1349 22.0772C50.0007 21.0609 51.2052 20.2986 52.7485 19.7905C54.3106 19.2635 56.1268 19 58.1971 19C60.2297 19 62.0365 19.2917 63.6174 19.8752C65.1983 20.4398 66.4499 21.2491 67.3721 22.303C68.3132 23.357 68.8213 24.5803 68.8966 25.973H62.9681C62.8928 25.4649 62.6481 25.032 62.2341 24.6744C61.8388 24.298 61.293 24.0157 60.5967 23.8275C59.9003 23.6205 59.0628 23.517 58.0841 23.517C56.7667 23.517 55.7221 23.6958 54.9505 24.0533C54.1788 24.3921 53.793 24.9003 53.793 25.5778C53.793 26.0672 54.0189 26.4624 54.4706 26.7635C54.9411 27.0646 55.7786 27.2717 56.9831 27.3846L61.1895 27.8081C63.2033 27.9963 64.8125 28.3256 66.017 28.7961C67.2216 29.2478 68.0967 29.8783 68.6425 30.6876C69.1883 31.4969 69.4612 32.5038 69.4612 33.7083C69.4612 35.1952 69.0189 36.4938 68.1344 37.6042C67.2498 38.6958 66.0076 39.5521 64.4079 40.1732C62.8081 40.7755 60.9449 41.0766 58.8181 41.0766C56.6349 41.0766 54.7058 40.7755 53.0308 40.1732C51.3746 39.5521 50.0759 38.6864 49.1349 37.576C48.1939 36.4467 47.6951 35.1481 47.6387 33.6801Z" fill="white"/>
<path d="M90.4465 32.1556V27.921H77.545V24.1945H91.237V19.4517H71.7012V40.6249H91.3782V35.8821H77.545V32.1556H90.4465Z" fill="white"/>
<path fill-rule="evenodd" clip-rule="evenodd" d="M99.462 40.6249H93.6182V19.4517H106.181C107.8 19.4517 109.211 19.7434 110.416 20.3268C111.62 20.8914 112.561 21.6819 113.239 22.6982C113.916 23.6957 114.255 24.8814 114.255 26.2553C114.255 27.5916 113.916 28.7679 113.239 29.7842C112.561 30.8005 111.62 31.591 110.416 32.1556C109.944 32.3765 109.441 32.5542 108.907 32.6886L114.989 40.6249H108.214L102.524 33.0025H99.462V40.6249ZM105.393 28.7019C106.331 28.7019 107.063 28.484 107.588 28.0481C108.113 27.6122 108.376 27.0058 108.376 26.2289C108.376 25.433 108.113 24.8265 107.588 24.4096C107.063 23.9738 106.331 23.7558 105.393 23.7558H99.5104V28.7019H105.393Z" fill="white"/>
<path d="M123.609 33.4542C123.251 32.7391 123.072 31.9015 123.072 30.9417V19.2258H117.229V31.224C117.229 33.1625 117.671 34.8564 118.555 36.3056C119.459 37.7359 120.71 38.8558 122.31 39.6651C123.929 40.4555 125.801 40.8508 127.928 40.8508C130.074 40.8508 131.946 40.4555 133.546 39.6651C134.349 39.259 135.061 38.7749 135.684 38.2125C136.311 38.7749 137.026 39.259 137.829 39.6651C139.447 40.4555 141.32 40.8508 143.447 40.8508C145.592 40.8508 147.465 40.4555 149.065 39.6651C150.664 38.8558 151.906 37.7359 152.791 36.3056C153.694 34.8564 154.146 33.1625 154.146 31.224V19.2258H148.274V30.9417C148.274 31.9015 148.095 32.7391 147.738 33.4542C147.38 34.1506 146.844 34.687 146.128 35.0634C145.413 35.4398 144.519 35.628 143.447 35.628C142.393 35.628 141.499 35.4398 140.765 35.0634C140.049 34.687 139.504 34.1506 139.127 33.4542C138.855 32.9102 138.687 32.2953 138.622 31.6096C138.626 31.4821 138.628 31.3536 138.628 31.224V19.2258H132.747V31.224C132.747 31.2476 132.747 31.2713 132.747 31.2948C132.708 32.1084 132.532 32.8282 132.219 33.4542C131.862 34.1506 131.325 34.687 130.61 35.0634C129.895 35.4398 129.001 35.628 127.928 35.628C126.874 35.628 125.98 35.4398 125.246 35.0634C124.531 34.687 123.985 34.1506 123.609 33.4542Z" fill="white"/>
<path d="M175.131 32.1556V27.921H162.23V24.1945H175.922V19.4517H156.386V40.6249H176.063V35.8821H162.23V32.1556H175.131Z" fill="white"/>
<path fill-rule="evenodd" clip-rule="evenodd" d="M197.81 29.9254C198.883 30.377 199.683 31.0169 200.21 31.8451C200.737 32.6543 201 33.5954 201 34.6682C201 35.8162 200.737 36.8419 200.21 37.7453C199.683 38.6299 198.893 39.3357 197.839 39.8627C196.803 40.3708 195.505 40.6249 193.943 40.6249H178.303V19.4517H193.378C195.335 19.4517 196.86 19.9128 197.951 20.835C199.043 21.7384 199.589 22.9994 199.589 24.6179C199.589 25.5025 199.382 26.3494 198.968 27.1587C198.554 27.968 197.886 28.655 196.963 29.2196C196.81 29.3124 196.475 29.4809 196.475 29.4809C196.475 29.4809 197.408 29.7456 197.81 29.9254ZM191.231 27.7642C191.909 27.7642 192.473 27.5666 192.925 27.1714C193.395 26.7573 193.631 26.2021 193.631 25.5057C193.631 24.9411 193.433 24.48 193.038 24.1224C192.643 23.746 192.078 23.5578 191.344 23.5578H184.089V27.7642H191.231ZM192.36 36.5441C193.207 36.5441 193.866 36.337 194.337 35.923C194.807 35.5089 195.042 34.9349 195.042 34.2009C195.042 33.4669 194.788 32.8834 194.28 32.4506C193.772 31.9989 193.019 31.773 192.022 31.773H184.089V36.5441H192.36Z" fill="white"/>
<defs>
<linearGradient id="paint0_linear_2_112" x1="-1.05873e-07" y1="8.5" x2="225" y2="60" gradientUnits="userSpaceOnUse">
<stop stop-color="#B95CF2"/>
<stop offset="1" stop-color="#FF553A"/>
</linearGradient>
</defs>
</svg>
