<svg width="102" height="60" viewBox="0 0 102 60" fill="none" xmlns="http://www.w3.org/2000/svg">
<rect width="102" height="60" rx="8" fill="url(#paint0_linear_2_139)"/>
<path d="M30.6135 33.4752C30.2428 32.7476 30.0575 31.8956 30.0575 30.9191V19H24V31.2063C24 33.1784 24.4585 34.9017 25.3754 36.376C26.3118 37.8312 27.6091 38.9704 29.2674 39.7937C30.9452 40.5979 32.8863 41 35.0908 41C37.3148 41 39.2559 40.5979 40.9142 39.7937C41.7492 39.3792 42.4902 38.8845 43.1373 38.3097C43.7824 38.8845 44.5182 39.3792 45.3445 39.7937C47.0047 40.5979 48.9256 41 51.107 41C53.3078 41 55.2287 40.5979 56.8696 39.7937C57.6929 39.3807 58.4238 38.8881 59.0624 38.316C59.7058 38.8881 60.4392 39.3807 61.2624 39.7937C62.9227 40.5979 64.8436 41 67.025 41C69.2258 41 71.1467 40.5979 72.7876 39.7937C74.4286 38.9704 75.7027 37.8312 76.61 36.376C77.5367 34.9017 78 33.1784 78 31.2063V19H71.9768V30.9191C71.9768 31.8956 71.7934 32.7476 71.4266 33.4752C71.0598 34.1836 70.5096 34.7293 69.776 35.1123C69.0424 35.4952 68.1254 35.6867 67.025 35.6867C65.9439 35.6867 65.0269 35.4952 64.274 35.1123C63.5405 34.7293 62.9806 34.1836 62.5945 33.4752C62.3155 32.9217 62.1426 32.2961 62.0758 31.5985C62.0799 31.4689 62.082 31.3381 62.082 31.2063V19H56.0501V31.2063L56.0503 31.2783C56.0103 32.106 55.8297 32.8383 55.5086 33.4752C55.1418 34.1836 54.5916 34.7293 53.858 35.1123C53.1244 35.4952 52.2074 35.6867 51.107 35.6867C50.026 35.6867 49.109 35.4952 48.3561 35.1123C47.6225 34.7293 47.0626 34.1836 46.6765 33.4752C46.4139 32.9543 46.2453 32.3696 46.1707 31.7212C46.178 31.5515 46.1816 31.3798 46.1816 31.2063V19H40.0948V30.9191C40.0948 31.8956 39.9095 32.7476 39.5388 33.4752C39.1682 34.1836 38.6122 34.7293 37.8708 35.1123C37.1295 35.4952 36.2028 35.6867 35.0908 35.6867C33.9983 35.6867 33.0716 35.4952 32.3108 35.1123C31.5694 34.7293 31.0037 34.1836 30.6135 33.4752Z" fill="white"/>
<defs>
<linearGradient id="paint0_linear_2_139" x1="-4.79956e-08" y1="8.5" x2="106.2" y2="19.5197" gradientUnits="userSpaceOnUse">
<stop stop-color="#B95CF2"/>
<stop offset="1" stop-color="#FF553A"/>
</linearGradient>
</defs>
</svg>
